Input #0, mov,mp4,m4a,3gp,3g2,mj2, from '/Volumes/TimeCapsuleManual/ComBackup/Fotos/2019/2019 - Leonardo da Vinci - 2o Ano/2019-05-18 - Aniver Leo/_EXPORT/2019-05-18-15-24-34 - Luiz e Aristeu brincando - DSC_0138_compact_.mov':
  Metadata:
    major_brand     : qt  
    minor_version   : 512
    compatible_brands: qt  
    creation_time   : 2019-05-18T18:24:34.000000Z
    encoder         : Lavf58.15.100
  Duration: 00:00:40.24, start: 0.000000, bitrate: 10536 kb/s
    Stream #0:0(eng): Video: h264 (High 4:4:4 Predictive) (avc1 / 0x31637661), yuv444p, 1920x1080, 10399 kb/s, 29.97 fps, 29.97 tbr, 30k tbn, 59.94 tbc (default)
    Metadata:
      creation_time   : 2019-05-18T18:24:34.000000Z
      handler_name    : VideoHandler
      encoder         : Lavc58.19.102 libx264
    Stream #0:1(eng): Audio: aac (LC) (mp4a / 0x6134706D), 48000 Hz, stereo, fltp, 128 kb/s (default)
    Metadata:
      creation_time   : 2019-05-18T18:24:34.000000Z
      handler_name    : SoundHandler
At least one output file must be specified
